name analog
datacolumns 19
datarows 69
range 0.5455 0.5795
endheader
time	ground_force_vx	ground_force_vy	ground_force_vz	ground_force_px	ground_force_py	ground_force_pz	l_ground_force_vx	l_ground_force_vy	l_ground_force_vz	l_ground_force_px	l_ground_force_py	l_ground_force_pz	ground_torque_x	ground_torque_y	ground_torque_z	l_ground_torque_x	l_ground_torque_y	l_ground_torque_z
0.5455	-0.0	-0.0	-0.0	-0.0	-0.0	-0.0	1.1524658203125	9.539512634277344	-492.6521911621094	-0.0	-0.0	-0.0	-0.0	-0.0	-0.0	166384.875	-23370.765625	-3052.21826171875
0.546	-0.0	-0.0	-0.0	-0.0	-0.0	-0.0	2.2173593044281006	9.626382827758787	-493.3501892089844	-0.0	-0.0	-0.0	-0.0	-0.0	-0.0	166643.921875	-23603.140625	-2962.0615234375
0.5465	-0.0	-0.0	-0.0	-0.0	-0.0	-0.0	2.572791576385498	9.009108543395996	-492.3033142089844	-0.0	-0.0	-0.0	-0.0	-0.0	-0.0	166809.28125	-24455.732421875	-2636.041259765625
0.547	-0.0	-0.0	-0.0	-0.0	-0.0	-0.0	3.2822799682617188	8.743854522705078	-492.30377197265625	-0.0	-0.0	-0.0	-0.0	-0.0	-0.0	166956.046875	-24300.30859375	-2605.87841796875
0.5475	-0.0	-0.0	-0.0	-0.0	-0.0	-0.0	3.636993408203125	8.4788818359375	-490.90863037109375	-0.0	-0.0	-0.0	-0.0	-0.0	-0.0	166771.640625	-24571.86328125	-2635.284423828125
0.548	-0.0	-0.0	-0.0	-0.0	-0.0	-0.0	3.105159044265747	7.507343292236328	-487.7659301757813	-0.0	-0.0	-0.0	-0.0	-0.0	-0.0	166493.0625	-24543.94921875	-2576.750244140625
0.5485	-0.0	-0.0	-0.0	-0.0	-0.0	-0.0	2.9270613193511963	6.889484405517578	-486.720458984375	-0.0	-0.0	-0.0	-0.0	-0.0	-0.0	166065.078125	-24553.673828125	-2784.52197265625
0.549	-0.0	-0.0	-0.0	-0.0	-0.0	-0.0	1.6868771314620972	6.62303352355957	-484.62890625	-0.0	-0.0	-0.0	-0.0	-0.0	-0.0	165945.78125	-24332.666015625	-3141.322509765625
0.5495	-0.0	-0.0	-0.0	-0.0	-0.0	-0.0	1.41937255859375	6.004517555236816	-485.3140258789063	-0.0	-0.0	-0.0	-0.0	-0.0	-0.0	165057.78125	-23823.822265625	-3260.737548828125
0.55	-0.0	-0.0	-0.0	-0.0	-0.0	-0.0	0.1782168298959732	5.476340293884277	-484.26861572265625	-0.0	-0.0	-0.0	-0.0	-0.0	-0.0	165413.671875	-23659.84375	-3528.10400390625
0.5505	-0.0	-0.0	-0.0	-0.0	-0.0	-0.0	0.0877613723278045	5.209561347961426	-481.48382568359375	-0.0	-0.0	-0.0	-0.0	-0.0	-0.0	164831.765625	-23490.7734375	-3469.62451171875
0.551	-0.0	-0.0	-0.0	-0.0	-0.0	-0.0	0.1784858107566833	5.20780086517334	-479.7322082519531	-0.0	-0.0	-0.0	-0.0	-0.0	-0.0	164305.859375	-23255.607421875	-3380.4287109375
0.5515	-0.0	-0.0	-0.0	-0.0	-0.0	-0.0	0.0923664569854736	5.034942626953125	-476.9315185546875	-0.0	-0.0	-0.0	-0.0	-0.0	-0.0	163847.96875	-23258.185546875	-3320.00927734375
0.552	-0.0	-0.0	-0.0	-0.0	-0.0	-0.0	0.7950190901756287	4.68373966217041	-475.8989868164063	-0.0	-0.0	-0.0	-0.0	-0.0	-0.0	163273.375	-22641.330078125	-2965.1005859375
0.5525	-0.0	-0.0	-0.0	-0.0	-0.0	-0.0	0.0901754796504974	4.948930740356445	-474.49993896484375	-0.0	-0.0	-0.0	-0.0	-0.0	-0.0	162930.84375	-22851.5625	-2876.58056640625
0.553	-0.0	-0.0	-0.0	-0.0	-0.0	-0.0	-0.7072577476501465	4.947626113891602	-474.48431396484375	-0.0	-0.0	-0.0	-0.0	-0.0	-0.0	162863.390625	-22549.1796875	-3145.258544921875
0.5535	-0.0	-0.0	-0.0	-0.0	-0.0	-0.0	-1.3306617736816406	4.680177211761475	-472.7685241699219	-0.0	-0.0	-0.0	-0.0	-0.0	-0.0	163070.515625	-22121.13671875	-3323.301513671875
0.554	-0.0	-0.0	-0.0	-0.0	-0.0	-0.0	-2.134655714035034	4.23944091796875	-472.7512817382813	-0.0	-0.0	-0.0	-0.0	-0.0	-0.0	162836.140625	-22336.705078125	-3677.846435546875
0.5545	-0.0	-0.0	-0.0	-0.0	-0.0	-0.0	-2.3972108364105225	4.329773426055908	-474.1280212402344	-0.0	-0.0	-0.0	-0.0	-0.0	-0.0	163028.109375	-22463.958984375	-3501.29931640625
0.555	-0.0	-0.0	-0.0	-0.0	-0.0	-0.0	-2.4807021617889404	4.674677848815918	-472.7638854980469	-0.0	-0.0	-0.0	-0.0	-0.0	-0.0	163271.34375	-22242.37890625	-3383.703857421875
0.5555	-0.0	-0.0	-0.0	-0.0	-0.0	-0.0	-1.5115145444869995	4.159090042114258	-472.7467956542969	-0.0	-0.0	-0.0	-0.0	-0.0	-0.0	163696.75	-22709.59375	-3117.802490234375
0.556	-0.0	-0.0	-0.0	-0.0	-0.0	-0.0	-1.2383207082748413	4.857692718505859	-476.5919799804688	-0.0	-0.0	-0.0	-0.0	-0.0	-0.0	164056.953125	-22982.03515625	-3083.08837890625
0.5565	-0.0	-0.0	-0.0	-0.0	-0.0	-0.0	-1.2381513118743896	5.387622833251953	-476.5870056152344	-0.0	-0.0	-0.0	-0.0	-0.0	-0.0	164945.296875	-22927.935546875	-2876.924072265625
0.557	-0.0	-0.0	-0.0	-0.0	-0.0	-0.0	-1.332005500793457	6.003199100494385	-476.967529296875	-0.0	-0.0	-0.0	-0.0	-0.0	-0.0	165180.1875	-23281.330078125	-2759.975341796875
0.5575	-0.0	-0.0	-0.0	-0.0	-0.0	-0.0	-1.5911539793014526	6.793750286102295	-478.6702270507813	-0.0	-0.0	-0.0	-0.0	-0.0	-0.0	165470.8125	-23641.57421875	-2908.367919921875
0.558	-0.0	-0.0	-0.0	-0.0	-0.0	-0.0	-1.6840379238128662	7.151135444641113	-476.969970703125	-0.0	-0.0	-0.0	-0.0	-0.0	-0.0	165322.21875	-23821.62109375	-2936.121337890625
0.5585	-0.0	-0.0	-0.0	-0.0	-0.0	-0.0	-1.243494749069214	7.3322367668151855	-477.2963562011719	-0.0	-0.0	-0.0	-0.0	-0.0	-0.0	164982.640625	-23685.84375	-2820.71923828125
0.559	-0.0	-0.0	-0.0	-0.0	-0.0	-0.0	-1.3274606466293335	7.77071475982666	-476.2554016113281	-0.0	-0.0	-0.0	-0.0	-0.0	-0.0	164890.65625	-23746.974609375	-2756.655517578125
0.5595	-0.0	-0.0	-0.0	-0.0	-0.0	-0.0	-0.6327195167541504	7.510684013366699	-475.8870849609375	-0.0	-0.0	-0.0	-0.0	-0.0	-0.0	165230.09375	-23877.767578125	-2931.916015625
0.56	-0.0	-0.0	-0.0	-0.0	-0.0	-0.0	-1.8664145469665527	7.760153770446777	-475.921142578125	-0.0	-0.0	-0.0	-0.0	-0.0	-0.0	165217.609375	-23887.677734375	-2965.177001953125
0.5605	-0.0	-0.0	-0.0	-0.0	-0.0	-0.0	-2.4839019775390625	7.766931533813477	-476.9269409179688	-0.0	-0.0	-0.0	-0.0	-0.0	-0.0	165409.359375	-23808.65234375	-3082.446044921875
0.561	-0.0	-0.0	-0.0	-0.0	-0.0	-0.0	-2.668832778930664	7.518557548522949	-474.85357666015625	-0.0	-0.0	-0.0	-0.0	-0.0	-0.0	164765.390625	-23823.09765625	-3202.44921875
0.5615	-0.0	-0.0	-0.0	-0.0	-0.0	-0.0	-2.7442030906677246	7.507343292236328	-472.1141662597656	-0.0	-0.0	-0.0	-0.0	-0.0	-0.0	164372.25	-23647.19921875	-2995.462646484375
0.562	-0.0	-0.0	-0.0	-0.0	-0.0	-0.0	-2.2237727642059326	7.322731018066406	-471.0606689453125	-0.0	-0.0	-0.0	-0.0	-0.0	-0.0	164239.34375	-23725.775390625	-2933.115966796875
0.5625	-0.0	-0.0	-0.0	-0.0	-0.0	-0.0	-2.6654789447784424	6.893228530883789	-473.76605224609375	-0.0	-0.0	-0.0	-0.0	-0.0	-0.0	163947.0	-23638.1640625	-2934.105712890625
0.5630000000000001	-0.0	-0.0	-0.0	-0.0	-0.0	-0.0	-3.5548341274261475	5.8334808349609375	-472.4273681640625	-0.0	-0.0	-0.0	-0.0	-0.0	-0.0	164462.15625	-23287.291015625	-3081.11083984375
0.5635	-0.0	-0.0	-0.0	-0.0	-0.0	-0.0	-4.510981559753418	5.120456218719482	-474.1217651367188	-0.0	-0.0	-0.0	-0.0	-0.0	-0.0	164501.140625	-23565.16796875	-3141.85888671875
0.5640000000000001	-0.0	-0.0	-0.0	-0.0	-0.0	-0.0	-5.415914058685303	4.248513221740723	-475.1774291992188	-0.0	-0.0	-0.0	-0.0	-0.0	-0.0	164218.28125	-22988.26953125	-3265.817138671875
0.5645	-0.0	-0.0	-0.0	-0.0	-0.0	-0.0	-5.76853609085083	3.714160442352295	-473.1004638671875	-0.0	-0.0	-0.0	-0.0	-0.0	-0.0	164056.90625	-23121.7265625	-3527.71435546875
0.5650000000000001	-0.0	-0.0	-0.0	-0.0	-0.0	-0.0	-6.300878047943115	3.363428831100464	-472.7228088378906	-0.0	-0.0	-0.0	-0.0	-0.0	-0.0	164263.484375	-22983.173828125	-3239.427001953125
0.5655	-0.0	-0.0	-0.0	-0.0	-0.0	-0.0	-5.943622589111328	2.8213586807250977	-472.7122497558594	-0.0	-0.0	-0.0	-0.0	-0.0	-0.0	163902.703125	-23131.6953125	-3207.226806640625
0.5660000000000001	-0.0	-0.0	-0.0	-0.0	-0.0	-0.0	-5.768736839294434	2.112146139144897	-473.08050537109375	-0.0	-0.0	-0.0	-0.0	-0.0	-0.0	164068.578125	-23338.06640625	-3086.93017578125
0.5665	-0.0	-0.0	-0.0	-0.0	-0.0	-0.0	-5.776650905609131	1.7508275508880615	-472.4227294921875	-0.0	-0.0	-0.0	-0.0	-0.0	-0.0	163891.8125	-23057.689453125	-3025.02783203125
0.5670000000000001	-0.0	-0.0	-0.0	-0.0	-0.0	-0.0	-6.131721019744873	0.6182518005371094	-471.4071960449219	-0.0	-0.0	-0.0	-0.0	-0.0	-0.0	163495.46875	-22848.3203125	-3032.613525390625
0.5675	-0.0	-0.0	-0.0	-0.0	-0.0	-0.0	-6.040572643280029	-0.0	-470.3504943847656	-0.0	-0.0	-0.0	-0.0	-0.0	-0.0	163136.921875	-22727.201171875	-3234.921142578125
0.5680000000000001	-0.0	-0.0	-0.0	-0.0	-0.0	-0.0	-7.179948329925537	-0.3448856472969055	-469.6089477539063	-0.0	-0.0	-0.0	-0.0	-0.0	-0.0	162689.234375	-22612.185546875	-3178.3056640625
0.5685	-0.0	-0.0	-0.0	-0.0	-0.0	-0.0	-7.008152008056641	-0.8660759329795837	-469.9129028320313	-0.0	-0.0	-0.0	-0.0	-0.0	-0.0	162326.4375	-22610.0625	-3236.66552734375
0.5690000000000001	-0.0	-0.0	-0.0	-0.0	-0.0	-0.0	-6.679827690124512	-0.0176018476486206	-467.5140380859375	-0.0	-0.0	-0.0	-0.0	-0.0	-0.0	162066.734375	-22697.369140625	-3155.05517578125
0.5695	-0.0	-0.0	-0.0	-0.0	-0.0	-0.0	-6.564598083496094	-0.1826428025960922	-466.8157348632813	-0.0	-0.0	-0.0	-0.0	-0.0	-0.0	161294.171875	-22652.5859375	-3088.767822265625
0.5700000000000001	-0.0	-0.0	-0.0	-0.0	-0.0	-0.0	-6.038474082946777	0.2741358876228332	-465.7682495117188	-0.0	-0.0	-0.0	-0.0	-0.0	-0.0	161395.65625	-23019.109375	-2830.5224609375
0.5705	-0.0	-0.0	-0.0	-0.0	-0.0	-0.0	-5.145225524902344	0.6307840347290039	-462.3634338378906	-0.0	-0.0	-0.0	-0.0	-0.0	-0.0	161236.75	-23257.318359375	-2675.3671875
0.5710000000000001	-0.0	-0.0	-0.0	-0.0	-0.0	-0.0	-3.735464096069336	1.5897903442382812	-462.9876403808594	-0.0	-0.0	-0.0	-0.0	-0.0	-0.0	160665.453125	-23416.021484375	-2253.505859375
0.5715	-0.0	-0.0	-0.0	-0.0	-0.0	-0.0	-2.661323547363281	2.224374771118164	-460.8414001464844	-0.0	-0.0	-0.0	-0.0	-0.0	-0.0	159638.625	-23471.36328125	-1784.4615478515625
0.5720000000000001	-0.0	-0.0	-0.0	-0.0	-0.0	-0.0	-1.159934639930725	2.2963638305664062	-456.0447082519531	-0.0	-0.0	-0.0	-0.0	-0.0	-0.0	158650.984375	-23564.03125	-1397.809326171875
0.5725	-0.0	-0.0	-0.0	-0.0	-0.0	-0.0	-0.4299378991127014	2.140054941177368	-453.8836975097656	-0.0	-0.0	-0.0	-0.0	-0.0	-0.0	157594.421875	-23580.119140625	-954.7027587890624
0.5730000000000001	-0.0	-0.0	-0.0	-0.0	-0.0	-0.0	0.7914347648620605	2.727574586868286	-451.1175842285156	-0.0	-0.0	-0.0	-0.0	-0.0	-0.0	156511.578125	-23618.1171875	-564.689208984375
0.5735	-0.0	-0.0	-0.0	-0.0	-0.0	-0.0	0.8090395331382751	2.900487899780273	-448.6179504394531	-0.0	-0.0	-0.0	-0.0	-0.0	-0.0	155639.640625	-23631.4296875	-214.639892578125
0.5740000000000001	-0.0	-0.0	-0.0	-0.0	-0.0	-0.0	1.2419509887695312	3.7906529903411865	-448.0325012207031	-0.0	-0.0	-0.0	-0.0	-0.0	-0.0	154803.3125	-23377.279296875	-324.4583435058594
0.5745	-0.0	-0.0	-0.0	-0.0	-0.0	-0.0	0.9905463457107544	4.055466175079346	-444.4990234375	-0.0	-0.0	-0.0	-0.0	-0.0	-0.0	154582.96875	-23282.9765625	-323.33868408203125
0.5750000000000001	-0.0	-0.0	-0.0	-0.0	-0.0	-0.0	1.844233155250549	4.500683784484863	-444.7897338867188	-0.0	-0.0	-0.0	-0.0	-0.0	-0.0	154335.609375	-23177.634765625	-292.9354248046875
0.5755	-0.0	-0.0	-0.0	-0.0	-0.0	-0.0	1.7742156982421875	4.512004375457764	-443.7266845703125	-0.0	-0.0	-0.0	-0.0	-0.0	-0.0	153897.421875	-23101.23828125	-289.1286315917969
0.5760000000000001	-0.0	-0.0	-0.0	-0.0	-0.0	-0.0	1.427136778831482	4.953744411468506	-442.3904113769531	-0.0	-0.0	-0.0	-0.0	-0.0	-0.0	153800.421875	-23016.890625	-295.665283203125
0.5765	-0.0	-0.0	-0.0	-0.0	-0.0	-0.0	0.4514317512512207	5.018649578094482	-442.677734375	-0.0	-0.0	-0.0	-0.0	-0.0	-0.0	153842.640625	-22615.6875	-671.4571533203125
0.577	-0.0	-0.0	-0.0	-0.0	-0.0	-0.0	0.1047751009464263	5.2189764976501465	-440.2960205078125	-0.0	-0.0	-0.0	-0.0	-0.0	-0.0	152935.21875	-22344.75	-626.9163818359375
0.5775	-0.0	-0.0	-0.0	-0.0	-0.0	-0.0	0.0968756377696991	5.122657775878906	-439.9471130371094	-0.0	-0.0	-0.0	-0.0	-0.0	-0.0	152595.28125	-22443.01171875	-689.0935668945312
0.578	-0.0	-0.0	-0.0	-0.0	-0.0	-0.0	0.4187137484550476	4.773492813110352	-439.94732666015625	-0.0	-0.0	-0.0	-0.0	-0.0	-0.0	152677.5	-22433.2109375	-591.7705078125
0.5785	-0.0	-0.0	-0.0	-0.0	-0.0	-0.0	-0.0718458592891693	4.8618903160095215	-438.8338317871094	-0.0	-0.0	-0.0	-0.0	-0.0	-0.0	152552.296875	-22455.037109375	-559.6132202148438
0.579	-0.0	-0.0	-0.0	-0.0	-0.0	-0.0	0.5996107459068298	4.765116691589356	-438.8836059570313	-0.0	-0.0	-0.0	-0.0	-0.0	-0.0	152482.21875	-22370.822265625	-417.9462890625
0.5795	-0.0	-0.0	-0.0	-0.0	-0.0	-0.0	0.9888689517974854	4.362411022186279	-438.5857849121094	-0.0	-0.0	-0.0	-0.0	-0.0	-0.0	152554.15625	-22346.572265625	-181.99143981933597
